<svg width="261" height="261" viewBox="0 0 261 261" fill="none" xmlns="http://www.w3.org/2000/svg">
<path d="M193.207 0.00305159C193.39 0.00922692 193.566 0.0556313 193.736 0.123169C226.556 13.1631 217.107 66.9148 207.839 93.6261C207.539 94.4897 207.813 95.5183 208.176 96.3575C210.396 101.5 212.31 119.601 211.383 124.77C210.252 129.115 209.066 133.056 207.873 136.398C207.561 137.27 207.898 138.231 208.567 138.871C211.432 141.611 214.901 148.632 211.724 167.729C211.723 167.738 211.731 167.746 211.74 167.746C211.75 167.746 211.757 167.756 211.755 167.766C210.575 172.086 209.277 175.954 207.974 179.158C207.611 180.051 207.927 181.088 208.571 181.805C211.663 185.243 216.138 195.105 216.138 215.322C216.138 238.489 186.339 252.256 171.44 256.243C170.006 256.627 166.858 257.483 163.257 258.132C159.899 258.971 151.798 260.65 146.259 260.65C141.663 260.649 137.327 254.005 134.904 248.985C134.281 247.694 135.325 246.26 136.733 245.984C141.919 244.971 144.751 240.553 145.873 237.396C146.146 236.627 146.802 236.035 147.605 235.891C153.316 234.866 155.81 232.459 156.653 230.008C157.249 228.277 155.16 228.171 153.935 229.531C148.777 235.262 138.677 229.798 133.048 225.289C132.636 224.959 132.386 224.47 132.346 223.943L131.909 218.266C131.835 217.298 132.487 216.437 133.398 216.104C137.907 214.456 140.105 210.844 140.912 208.374C141.12 207.737 141.798 207.33 142.433 207.542C143.365 207.852 144.142 206.895 143.535 206.123C138.854 200.176 130.876 200.212 124.846 201.67C123.791 201.925 123.707 201.163 124.735 200.814C125.56 200.533 125.466 199.448 124.72 199L124.263 198.726C123.857 198.482 123.634 198.018 123.684 197.548C125.355 182.05 120.272 173.094 113.612 168.213C113.257 167.961 113.193 167.457 113.474 167.125C118.237 161.509 121.321 159.257 123.914 158.206C124.868 157.82 125.099 156.419 124.217 155.89C123.838 155.663 123.631 155.229 123.679 154.79C125.285 140.064 120.994 131.236 114.877 126.195C113.921 125.408 113.773 123.948 114.652 123.075C121.995 115.783 122.636 115.622 126.68 114.611C126.703 114.606 126.708 114.575 126.688 114.563L124.262 113.108C123.856 112.864 123.634 112.39 123.684 111.92C125.993 90.4751 115.368 81.5632 105.531 78.6339C103.506 78.0307 103.456 77.223 105.53 77.63C106.478 77.8161 107.417 78.0264 108.308 78.2443C110.481 78.7753 112.74 77.5359 113.432 75.4093C117.182 63.8799 124.106 50.6243 129.091 42.0363C130.564 39.4968 128.924 36.2413 125.989 36.1798C112.249 35.8932 101.209 38.6926 94.1981 41.4933C92.338 42.2363 91.9011 41.6059 93.66 40.6476C97.3114 38.6581 101.924 36.4416 105.404 34.8429C106.403 34.3838 106.843 33.1995 106.261 32.2667C102.529 26.2909 93.5408 18.1611 84.8592 11.1632C83.0274 9.68612 84.4375 7.4188 86.4178 8.69055C99.6264 17.1733 109.323 27.0972 113.858 32.8146C114.415 33.5168 115.359 33.7711 116.206 33.4786C126.478 29.9328 139.761 31.9257 146.332 33.6798C147.061 33.8745 147.85 33.6485 148.361 33.0929C173.073 6.1902 188.33 -0.160476 193.207 0.00305159ZM131.638 229.152C132.132 229.153 132.598 229.365 132.954 229.708C134.711 231.402 137.836 233.459 141.493 234.764C142.647 235.176 143.276 236.492 142.489 237.432C138.541 242.145 129.459 243.546 121.935 239.03C120.648 238.258 120.926 236.342 122.23 235.599C124.749 234.163 127.607 232.129 129.015 230.618C129.672 229.915 130.676 229.152 131.638 229.152ZM46.6268 194.81C46.8196 194.02 47.6165 193.536 48.4061 193.729C49.1954 193.922 49.6787 194.718 49.4861 195.507C47.2036 204.855 46.7464 219.419 53.1063 231.621C53.4816 232.342 53.2027 233.231 52.4822 233.607C51.7616 233.982 50.8727 233.702 50.4969 232.982C43.703 219.946 44.2373 204.596 46.6268 194.81ZM117.478 208.907C118.627 208.279 120.062 209.065 120.747 210.182C122.387 212.855 125.795 215.26 128.202 216.621C128.849 216.987 129.269 217.661 129.269 218.404V225.232C129.269 225.729 129.082 226.212 128.729 226.563C119.853 235.394 105.346 233.986 105.346 224.116C105.347 217.221 112.414 211.678 117.478 208.907ZM98.4139 167.56C109.903 167.56 119.217 177.484 119.217 188.971C119.216 200.458 109.903 210.381 98.4139 210.381C85.565 210.381 75.7754 201.817 75.7752 188.971C75.7752 177.96 84.9531 167.56 98.4139 167.56ZM162.632 162.967C143.797 162.967 133.171 185.249 142.072 196.99C142.363 197.373 142.93 197.074 142.867 196.597C142.789 196.001 144.112 195.816 144.379 196.354C147.364 202.372 153.571 206.509 160.744 206.509C170.827 206.509 179.001 198.335 179.001 188.252C179 178.169 170.827 169.996 160.744 169.996C156.034 169.996 151.74 171.779 148.502 174.708C151.768 171.34 156.432 169.262 162.632 169.262C173.5 169.262 180.322 175.873 184.03 182.297C185.067 184.094 187.7 183.751 187.375 181.702C185.975 172.893 179.438 162.967 162.632 162.967ZM98.4139 171.231C89.2361 171.231 83.117 179.795 83.117 188.971C83.1172 196.923 90.4599 205.487 98.4139 205.487C108.203 205.487 117.381 199.37 117.382 188.971C117.382 178.571 109.227 171.231 98.4139 171.231ZM160.79 171.904C169.595 171.904 176.733 179.043 176.733 187.848C176.733 196.653 169.595 203.79 160.79 203.79C151.985 203.79 144.847 196.653 144.847 187.848C144.848 179.043 151.985 171.905 160.79 171.904ZM100.133 173.331C108.362 173.331 115.034 180.003 115.034 188.233C115.034 196.462 108.362 203.134 100.133 203.134C91.903 203.134 85.2314 196.462 85.2313 188.233C85.2313 180.003 91.903 173.331 100.133 173.331ZM160.572 177.53C154.661 177.53 149.87 182.322 149.87 188.233C149.87 194.143 154.661 198.935 160.572 198.935C166.483 198.935 171.274 194.143 171.274 188.233C171.274 182.322 166.483 177.53 160.572 177.53ZM100.134 178.101C94.5375 178.101 90.0008 182.637 90.0008 188.234C90.0011 193.829 94.5376 198.366 100.134 198.366C105.73 198.366 110.266 193.829 110.266 188.234C110.266 182.637 105.73 178.101 100.134 178.101ZM46.3582 152.206C46.5179 151.409 47.2938 150.892 48.0906 151.052C48.8875 151.211 49.4043 151.987 49.2449 152.784C48.0487 158.76 47.2972 167.891 50.5418 175.484C50.8612 176.232 50.5138 177.097 49.7664 177.416C49.019 177.735 48.1541 177.388 47.8348 176.641C44.2373 168.221 45.1241 158.371 46.3582 152.206ZM99.4471 125.044C110.702 125.044 119.826 134.768 119.826 146.023C119.826 157.277 110.702 165.802 99.4471 165.802C86.8601 165.802 78.3016 158.61 78.3016 146.023C78.3017 135.234 86.2608 125.044 99.4471 125.044ZM160.726 121.001C145.669 121.002 136.341 136.249 139.639 147.135C140.202 148.99 142.3 148.176 142.338 146.238C142.347 145.785 142.365 145.335 142.394 144.888C142.441 154.674 150.388 162.593 160.185 162.593C170.011 162.593 177.976 154.628 177.976 144.802C177.976 134.976 170.011 127.01 160.185 127.01C153.129 127.01 147.033 131.118 144.156 137.072C146.733 130.95 152.11 126.654 160.726 126.653C170.349 126.653 176.508 132.202 179.974 137.782C181.064 139.537 183.658 139.168 183.263 137.141C181.752 129.41 175.676 121.001 160.726 121.001ZM99.4471 128.641C90.4564 128.641 83.2206 137.032 83.2205 146.023C83.2205 153.815 91.6551 162.206 99.4471 162.206C109.037 162.206 118.027 156.212 118.027 146.023C118.027 135.833 110.04 128.641 99.4471 128.641ZM160.097 130.316C168.519 130.316 175.346 136.832 175.346 144.871C175.346 152.91 168.519 159.428 160.097 159.428C151.675 159.428 144.847 152.911 144.847 144.871C144.848 136.832 151.676 130.316 160.097 130.316ZM100.555 131.7C108.595 131.7 115.112 137.907 115.112 145.564C115.112 153.22 108.595 159.427 100.555 159.427C92.5162 159.427 85.9989 153.22 85.9988 145.564C85.9989 137.907 92.5162 131.7 100.555 131.7ZM100.459 135.234C94.8314 135.234 90.2695 139.796 90.2693 145.423C90.2693 151.05 94.8313 155.612 100.459 155.612C106.086 155.612 110.648 151.05 110.648 145.423C110.648 139.796 106.086 135.234 100.459 135.234ZM160.021 134.354C154.261 134.354 149.592 139.023 149.592 144.783C149.592 150.543 154.261 155.213 160.021 155.213C165.781 155.213 170.451 150.543 170.451 144.783C170.451 139.023 165.781 134.354 160.021 134.354ZM46.242 108.898C46.4225 108.105 47.2113 107.609 48.0037 107.789C48.796 107.97 49.2921 108.758 49.1121 109.55C47.8998 114.876 47.15 122.966 50.4119 129.681C50.767 130.412 50.4629 131.292 49.7322 131.648C49.0012 132.003 48.1196 131.698 47.7645 130.967C44.0613 123.344 44.9802 114.441 46.242 108.898ZM99.1482 81.9366C110.568 81.9367 119.826 91.803 119.826 103.223C119.826 114.642 110.568 123.291 99.1482 123.291C86.3771 123.291 78.3018 115.994 78.3016 103.223C78.3016 92.2759 85.7688 81.9366 99.1482 81.9366ZM161.747 77.5743C146.416 77.5746 136.943 94.1564 140.409 105.905C140.963 107.784 143.077 107.007 143.098 105.048C143.101 104.809 143.106 104.57 143.113 104.332C144.047 113.279 151.613 120.254 160.807 120.254C170.633 120.254 178.599 112.289 178.599 102.463C178.599 92.6372 170.633 84.671 160.807 84.671C154.697 84.6712 149.307 87.7521 146.103 92.4445C149.025 87.1798 154.142 83.6692 161.747 83.6691C171.521 83.6692 177.77 89.674 181.281 95.7032C182.335 97.513 184.984 97.1533 184.616 95.0919C183.12 86.7244 176.972 77.5744 161.747 77.5743ZM99.1482 85.5861C90.0259 85.5861 83.9441 94.1004 83.9441 103.223C83.9444 111.129 91.2423 119.643 99.1482 119.643C108.879 119.643 118.001 113.561 118.001 103.223C118.001 92.8841 109.896 85.5861 99.1482 85.5861ZM160.717 87.338C169.139 87.3382 175.966 94.166 175.966 102.588C175.966 111.01 169.139 117.838 160.717 117.838C152.295 117.838 145.467 111.01 145.467 102.588C145.467 94.166 152.295 87.3381 160.717 87.338ZM101.103 88.7257C108.76 88.7258 114.967 94.9326 114.967 102.589C114.966 110.245 108.76 116.452 101.103 116.452C93.4469 116.452 87.2402 110.245 87.24 102.589C87.2401 94.9325 93.4469 88.7257 101.103 88.7257ZM160.641 92.6349C154.882 92.6349 150.212 97.3047 150.212 103.065C150.212 108.825 154.881 113.494 160.641 113.494C166.401 113.494 171.071 108.825 171.071 103.065C171.071 97.3048 166.401 92.635 160.641 92.6349ZM101.423 92.2765C95.7128 92.2765 91.0839 96.9055 91.0838 102.615C91.0839 108.325 95.7128 112.954 101.423 112.954C107.133 112.954 111.761 108.325 111.762 102.615C111.761 96.9055 107.133 92.2765 101.423 92.2765ZM45.8914 30.8468C46.4018 26.4403 49.2136 24.5519 48.8953 26.4406C46.7787 38.999 46.2453 59.7919 54.9217 89.1827C54.9628 89.322 54.9905 89.4682 54.9949 89.6134C55.043 91.2055 54.4615 92.5801 53.7244 90.6534C51.3496 82.579 43.2426 53.723 45.8914 30.8468ZM68.8338 9.4425C70.892 9.44275 72.813 11.1207 72.2615 11.7814C72.1189 11.9521 71.8653 11.9574 71.6434 11.9718C61.7784 12.6117 56.1398 41.273 65.6863 72.3966C65.8794 73.0261 61.1452 81.21 60.6492 79.3214C45.5402 16.9971 66.5456 9.4425 68.8338 9.4425Z" fill="white"/>
</svg>
