<svg width="809" height="469" viewBox="0 0 809 469" fill="none" xmlns="http://www.w3.org/2000/svg">
<path d="M262.019 24.0293C262.312 24.0392 262.597 24.1121 262.87 24.2207C315.577 45.1624 300.403 131.486 285.518 174.385C285.036 175.772 285.478 177.425 286.06 178.773C289.624 187.032 292.699 216.1 291.21 224.402L291.209 224.403H291.207C289.391 231.382 287.487 237.711 285.57 243.078C285.07 244.479 285.611 246.022 286.686 247.051C291.287 251.45 296.858 262.725 291.757 293.393C291.754 293.407 291.765 293.423 291.78 293.423C291.797 293.423 291.809 293.438 291.805 293.454C289.91 300.392 287.826 306.604 285.733 311.749C285.15 313.183 285.657 314.849 286.692 316C291.658 321.522 298.846 337.36 298.846 369.83C298.845 407.036 250.989 429.145 227.061 435.548C224.758 436.164 219.702 437.539 213.918 438.581C208.525 439.929 195.517 442.625 186.62 442.625C179.239 442.624 172.274 431.953 168.384 423.891C167.382 421.816 169.061 419.512 171.322 419.07C179.65 417.443 184.198 410.348 185.999 405.278C186.438 404.043 187.493 403.092 188.783 402.86C197.956 401.214 201.96 397.35 203.313 393.413C204.269 390.633 200.915 390.462 198.948 392.647C190.664 401.853 174.442 393.077 165.402 385.835C164.741 385.305 164.34 384.52 164.275 383.675L163.574 374.555C163.455 373.001 164.502 371.618 165.966 371.083C173.207 368.437 176.736 362.635 178.032 358.669C178.367 357.646 179.456 356.994 180.477 357.334C181.972 357.833 183.22 356.294 182.245 355.055C174.727 345.504 161.915 345.562 152.231 347.904C150.537 348.314 150.402 347.088 152.053 346.527C153.377 346.077 153.227 344.334 152.027 343.614L151.293 343.174C150.642 342.783 150.284 342.037 150.365 341.282C152.904 317.738 145.736 303.598 135.9 295.502C134.465 294.32 134.159 292.179 135.384 290.78C142.238 282.955 146.833 279.682 150.734 278.101C152.266 277.48 152.637 275.231 151.22 274.381C150.612 274.016 150.279 273.319 150.355 272.615C153.199 246.554 144.541 231.997 133.132 224.403L133.133 224.402C147.534 210.001 148.214 209.831 155.179 208.09C155.215 208.081 155.223 208.031 155.19 208.012L151.286 205.669C150.64 205.281 150.286 204.526 150.367 203.777C154.079 169.33 137.014 155.014 121.215 150.309C117.962 149.34 117.883 148.044 121.213 148.697C122.734 148.996 124.243 149.335 125.674 149.685C129.163 150.537 132.792 148.547 133.903 145.131C139.926 126.614 151.046 105.327 159.051 91.5342C161.418 87.4558 158.783 82.2285 154.068 82.1299C132.001 81.6696 114.271 86.1643 103.011 90.6621C100.024 91.8553 99.323 90.8437 102.147 89.3047C108.011 86.1095 115.418 82.549 121.008 79.9814C122.613 79.2442 123.319 77.3419 122.384 75.8437C116.391 66.2466 101.957 53.1909 88.0146 41.9521C85.072 39.5799 87.3371 35.9379 90.5175 37.9805C111.731 51.6042 127.305 67.5426 134.588 76.7246C135.482 77.8523 136.998 78.2607 138.358 77.791C154.856 72.0966 176.186 75.2962 186.739 78.1133C187.91 78.4258 189.178 78.0626 189.998 77.1699C229.684 33.9658 254.185 23.7674 262.019 24.0293ZM163.141 392.041C163.934 392.041 164.682 392.383 165.253 392.934C168.075 395.655 173.093 398.957 178.967 401.053C180.821 401.714 181.83 403.828 180.566 405.337C174.227 412.907 159.64 415.157 147.558 407.905C145.49 406.664 145.936 403.589 148.031 402.395C152.076 400.089 156.667 396.821 158.929 394.395C159.982 393.264 161.595 392.041 163.141 392.041ZM26.6132 336.886C26.9229 335.618 28.2017 334.841 29.4697 335.15C30.7377 335.46 31.5146 336.739 31.205 338.007C27.5393 353.019 26.8056 376.408 37.0195 396.005C37.6226 397.162 37.173 398.59 36.0156 399.193C34.8582 399.796 33.4306 399.348 32.8271 398.19C21.916 377.256 22.7756 352.602 26.6132 336.886ZM140.398 359.526C142.244 358.517 144.548 359.78 145.647 361.573C148.281 365.867 153.754 369.728 157.62 371.915C158.659 372.503 159.334 373.586 159.334 374.779V385.744C159.334 386.542 159.033 387.318 158.468 387.881C144.213 402.064 120.915 399.804 120.915 383.953C120.915 372.879 132.266 363.977 140.398 359.526ZM109.78 293.124C128.232 293.124 143.189 309.061 143.189 327.509C143.189 345.956 128.232 361.893 109.78 361.894C89.145 361.894 73.4228 348.14 73.4228 327.509C73.4229 309.825 88.1624 293.124 109.78 293.124ZM212.917 285.747C182.669 285.748 165.603 321.531 179.898 340.388C180.365 341.003 181.276 340.522 181.176 339.756C181.05 338.799 183.172 338.502 183.601 339.366C188.395 349.032 198.364 355.677 209.884 355.677C226.076 355.676 239.204 342.549 239.204 326.356C239.204 310.164 226.076 297.037 209.884 297.036C202.32 297.036 195.424 299.9 190.224 304.604C195.468 299.194 202.96 295.858 212.917 295.857C230.372 295.858 241.327 306.474 247.282 316.791C248.948 319.677 253.176 319.126 252.653 315.835C250.405 301.687 239.908 285.747 212.917 285.747ZM109.78 299.019C95.0408 299.019 85.2139 312.772 85.2138 327.509C85.2138 340.28 97.006 354.034 109.78 354.034C125.502 354.034 140.241 344.21 140.241 327.509C140.241 310.808 127.146 299.019 109.78 299.019ZM209.959 300.102C224.099 300.102 235.562 311.566 235.562 325.706C235.562 339.846 224.099 351.309 209.959 351.31C195.818 351.31 184.355 339.846 184.354 325.706C184.354 311.565 195.818 300.102 209.959 300.102ZM112.543 302.393C125.759 302.393 136.474 313.108 136.474 326.324C136.473 339.541 125.759 350.255 112.543 350.255C99.3262 350.255 88.6115 339.541 88.6113 326.324C88.6114 313.107 99.3261 302.393 112.543 302.393ZM209.609 309.136C200.117 309.136 192.422 316.831 192.422 326.323C192.422 335.816 200.117 343.512 209.609 343.512C219.102 343.512 226.797 335.816 226.797 326.323C226.797 316.831 219.102 309.136 209.609 309.136ZM112.543 310.052C103.556 310.052 96.2696 317.338 96.2695 326.325C96.2695 335.313 103.555 342.599 112.543 342.599C121.53 342.598 128.816 335.313 128.816 326.325C128.816 317.338 121.53 310.052 112.543 310.052ZM26.1816 268.467C26.438 267.187 27.683 266.357 28.9628 266.613C30.2426 266.869 31.0723 268.115 30.8164 269.395C28.8951 278.992 27.6884 293.656 32.8994 305.852C33.4121 307.052 32.8544 308.44 31.6543 308.953C30.454 309.466 29.0657 308.909 28.5527 307.709C22.7748 294.187 24.1996 278.367 26.1816 268.467ZM111.439 224.845C129.515 224.845 144.168 240.461 144.168 258.536C144.168 276.611 129.515 290.302 111.439 290.302C91.225 290.302 77.4805 278.75 77.4804 258.536C77.4804 241.209 90.2623 224.845 111.439 224.845ZM209.855 218.352C185.673 218.352 170.692 242.839 175.989 260.321C176.892 263.3 180.262 261.994 180.322 258.882C180.337 258.143 180.368 257.409 180.416 256.681C180.474 272.412 193.244 285.147 208.988 285.147C224.768 285.147 237.56 272.354 237.561 256.574C237.56 240.794 224.768 228.002 208.988 228.002C197.646 228.002 187.847 234.611 183.232 244.187C187.367 234.341 196.005 227.429 209.855 227.429C225.309 227.429 235.199 236.338 240.767 245.3C242.517 248.118 246.683 247.524 246.047 244.269C243.621 231.854 233.863 218.352 209.855 218.352ZM111.439 230.62C97.0005 230.62 85.3808 244.097 85.3808 258.536C85.381 271.05 98.9257 284.526 111.439 284.526C126.841 284.526 141.28 274.9 141.28 258.536C141.28 242.172 128.451 230.62 111.439 230.62ZM208.846 233.309C222.371 233.309 233.336 243.776 233.336 256.687C233.336 269.597 222.371 280.063 208.846 280.063C195.32 280.063 184.355 269.597 184.354 256.687C184.355 243.776 195.32 233.309 208.846 233.309ZM113.22 235.534C126.13 235.534 136.596 245.503 136.597 257.799C136.596 270.095 126.13 280.062 113.22 280.062C100.309 280.062 89.8419 270.095 89.8418 257.799C89.842 245.503 100.309 235.534 113.22 235.534ZM113.063 241.208C104.026 241.208 96.6996 248.535 96.6992 257.572C96.6992 266.61 104.026 273.936 113.063 273.937C122.101 273.936 129.428 266.61 129.428 257.572C129.427 248.535 122.101 241.208 113.063 241.208ZM208.724 239.795C199.473 239.795 191.974 247.294 191.974 256.544C191.974 265.795 199.473 273.294 208.724 273.294C217.974 273.294 225.473 265.794 225.473 256.544C225.472 247.294 217.974 239.795 208.724 239.795ZM25.9931 198.913C26.2829 197.64 27.5496 196.843 28.8222 197.133C30.0949 197.423 30.892 198.689 30.6025 199.962C28.6556 208.515 27.4517 221.508 32.6904 232.291C33.2608 233.465 32.7717 234.88 31.5976 235.45C30.4236 236.021 29.0089 235.531 28.4384 234.357C22.4906 222.115 23.9666 207.816 25.9931 198.913ZM110.96 155.614C129.3 155.614 144.168 171.459 144.168 189.799C144.168 208.139 129.3 222.03 110.96 222.03C90.4494 222.03 77.4804 210.309 77.4804 189.799C77.4805 172.218 89.4728 155.614 110.96 155.614ZM211.495 148.608C186.874 148.609 171.659 175.238 177.227 194.106C178.117 197.124 181.511 195.875 181.546 192.729C181.55 192.352 181.559 191.975 181.57 191.6C183.079 205.96 195.225 217.152 209.985 217.152C225.765 217.152 238.558 204.36 238.559 188.58C238.559 172.8 225.766 160.007 209.985 160.007C200.177 160.007 191.523 164.949 186.378 172.479C191.07 164.03 199.286 158.397 211.495 158.396C227.192 158.397 237.227 168.039 242.866 177.722C244.559 180.628 248.814 180.05 248.222 176.739C245.818 163.301 235.947 148.609 211.495 148.608ZM110.96 161.475C96.3096 161.475 86.543 175.149 86.5429 189.799C86.5429 202.496 98.2629 216.17 110.96 216.17C126.587 216.17 141.237 206.403 141.237 189.799C141.237 173.195 128.221 161.475 110.96 161.475ZM209.839 164.289C223.364 164.289 234.329 175.255 234.329 188.78C234.329 202.306 223.364 213.27 209.839 213.271C196.313 213.271 185.348 202.306 185.348 188.78C185.348 175.254 196.313 164.289 209.839 164.289ZM114.101 166.516C126.397 166.516 136.364 176.484 136.364 188.78C136.364 201.076 126.396 211.044 114.101 211.044C101.804 211.044 91.8362 201.076 91.8359 188.78C91.8359 176.484 101.804 166.516 114.101 166.516ZM209.717 172.796C200.466 172.796 192.967 180.295 192.967 189.546C192.967 198.796 200.466 206.295 209.717 206.295C218.967 206.295 226.465 198.796 226.466 189.546C226.466 180.295 218.967 172.796 209.717 172.796ZM114.614 172.219C105.444 172.219 98.0107 179.652 98.0107 188.822C98.0109 197.992 105.444 205.426 114.614 205.426C123.784 205.426 131.219 197.992 131.219 188.822C131.219 179.652 123.784 172.219 114.614 172.219ZM25.4287 73.5654C26.2481 66.4886 30.7636 63.4548 30.2529 66.4873C26.8536 86.6559 25.9973 120.05 39.9316 167.252C39.9975 167.475 40.0417 167.709 40.0488 167.942C40.1262 170.5 39.1936 172.708 38.0097 169.613C34.1959 156.646 21.1748 110.305 25.4287 73.5654ZM62.2744 39.1894C65.5801 39.1894 68.6659 41.8842 67.7802 42.9453C67.5512 43.2194 67.1436 43.2278 66.7871 43.251C50.9442 44.2792 41.8881 90.3092 57.2197 140.293C57.5298 141.304 49.9284 154.447 49.1318 151.414C24.8671 51.3233 58.5985 39.1899 62.2744 39.1894Z" fill="white"/>
<path d="M728.064 338.611C729.724 337.284 731.438 335.956 733.208 334.629C736.748 331.974 739.68 329.983 742.003 328.655C743.33 327.881 744.547 327.162 745.654 326.498C747.313 326.166 749.249 326 751.461 326C755.333 326 759.095 326.774 762.745 328.323C766.506 329.761 769.825 332.084 772.702 335.293C774.25 336.952 775.688 338.943 777.016 341.266C778.454 343.479 779.726 346.134 780.832 349.231C781.939 352.329 782.768 355.924 783.322 360.017C783.985 364 784.317 368.646 784.317 373.956C784.317 381.7 783.985 388.669 783.322 394.864C782.768 401.059 782.105 406.314 781.33 410.628C780.445 415.717 779.45 420.198 778.343 424.069C772.016 432.122 763.043 439.933 753.95 444.48C740.963 447.263 727.757 441.425 721.095 430.043C712.289 414.634 713.015 394.982 714.623 377.939C716.056 362.459 715.189 348.912 728.064 338.611ZM739.846 347.24C735.743 365.702 730.902 397.625 741.505 414.943C744.839 420.213 751.918 425.181 758.431 422.576C761.811 402.972 773.82 347.24 739.846 347.24Z" fill="white"/>
<path d="M695.756 329C695.645 334.199 695.535 339.786 695.424 345.76C695.313 350.849 695.258 356.712 695.258 363.349C695.258 369.876 695.258 376.68 695.258 383.76C695.258 391.725 695.258 399.358 695.258 406.659C695.258 413.96 695.313 420.487 695.424 426.24C695.497 430.661 695.569 434.893 695.641 438.934C695.75 444.973 699.617 445.157 691.524 445.157H672.856C672.856 439.294 672.912 432.988 673.022 426.24C673.133 420.487 673.188 413.96 673.188 406.659C673.299 399.358 673.354 391.725 673.354 383.76C673.354 376.68 673.299 369.876 673.188 363.349C673.188 356.712 673.133 350.849 673.022 345.76C672.956 342.174 672.91 338.728 672.883 335.422C672.873 334.239 677.005 329 679.079 329H695.756Z" fill="white"/>
<path d="M527.365 330.489C527.273 338.98 527.228 347.609 527.228 356.375C527.117 364.672 527.062 373.744 527.062 383.589C527.062 393.324 527.062 402.783 527.062 411.965C527.062 415.837 528.057 418.879 530.049 421.091C532.04 423.193 534.584 424.244 537.682 424.244C538.567 424.244 539.452 424.189 540.337 424.078C541.222 423.968 542.107 423.691 542.992 423.248C542.992 411.301 542.936 399.63 542.826 388.236C542.826 376.841 542.77 366.664 542.66 357.703C542.559 348.127 542.504 339.055 542.495 330.489C542.495 330.489 554.008 328 558.258 328H565.725C565.615 333.421 565.504 339.118 565.393 345.092C565.283 350.18 565.227 355.878 565.227 362.183C565.227 368.489 565.227 374.795 565.227 381.1C565.227 389.176 565.227 396.975 565.227 404.497C565.227 411.909 565.283 418.602 565.393 424.576C565.504 431.435 565.615 437.962 565.725 444.157C565.725 444.157 548.058 444.157 547.2 444.157C546.342 444.157 542.66 442.036 542.66 441.17C542.66 440.303 542.66 439.289 542.66 438.183C542.77 437.077 542.826 435.915 542.826 434.698C538.067 439.933 533.058 445.484 525.402 445.484C521.088 445.484 517.548 444.765 514.782 443.327C512.017 441.889 509.859 439.898 508.311 437.353C506.762 434.809 505.711 431.822 505.158 428.393C504.605 424.853 504.328 421.091 504.328 417.109C504.328 414.675 504.383 410.25 504.494 403.834C504.605 397.307 504.66 389.729 504.66 381.1C504.66 375.126 504.605 369.042 504.494 362.847C504.494 356.541 504.494 350.789 504.494 345.589C504.4 340.395 504.345 335.362 504.332 330.489C504.332 328.416 511.955 328 515.861 328C519.766 328 527.145 329.666 527.365 330.489Z" fill="white"/>
<path d="M386.482 326C388.584 326 390.962 326.277 393.617 326.83C396.272 327.383 398.761 328.434 401.084 329.983C403.408 331.531 405.399 333.799 407.058 336.786C408.718 339.662 409.658 343.479 409.879 348.236L395.526 355.869C394.109 356.572 388.2 356.658 388.065 355.869C387.331 351.561 380.356 341.58 375.51 348.236C374.264 349.946 372.709 353.452 372.709 355.869C372.709 362.358 381.264 368.941 386.98 371.799C388.639 372.684 390.63 373.735 392.953 374.952C395.387 376.058 397.323 377.054 398.761 377.939C403.186 380.483 406.394 384.659 408.22 387.895C410.045 391.13 415.189 400.838 415.189 406.48C415.189 426.464 408.327 442.233 387.643 444.646C386.98 444.867 386.205 444.978 385.32 444.978C384.435 445.088 383.606 445.144 382.831 445.144C374.183 445.144 368.312 439.667 364.412 434.689C362.97 432.849 360.264 426.392 360.264 424.899L377.273 413.947C378.932 413.947 382.606 417.306 382.831 418.096C383.85 421.661 387.216 427.886 391.377 427.886C394.592 427.886 395.194 424.346 395.526 422.244C396.465 415.979 392.155 406.882 386.98 400.672C385.873 399.345 384.435 398.183 382.665 397.187C380.895 396.081 378.793 395.03 376.36 394.035C373.041 392.596 369.888 390.55 366.901 387.895C364.025 385.24 362.089 381.313 361.093 376.113C360.872 374.565 360.651 373.016 360.43 371.467C360.319 369.918 360.264 368.314 360.264 366.655C360.264 362.672 360.706 358.524 361.591 354.209C362.476 349.784 363.859 345.415 365.74 341.1C371.625 330.688 376.167 327.382 386.482 326Z" fill="white"/>
<path d="M721.428 174.015C723.862 173.904 726.683 173.794 729.891 173.683C733.099 173.572 736.639 173.517 740.511 173.517C750.246 173.517 757.492 175.066 762.249 178.163C765.014 179.933 767.559 182.699 769.882 186.46C772.205 190.111 773.367 194.536 773.367 199.735C773.367 203.386 772.869 206.76 771.873 209.858C770.878 212.844 769.605 215.555 768.057 217.989C766.508 220.422 764.738 222.579 762.747 224.46C760.866 226.23 758.93 227.668 756.939 228.774C757.603 231.54 758.488 234.527 759.594 237.735C760.479 240.501 761.53 243.764 762.747 247.525C763.963 251.176 765.346 255.103 766.895 259.307C768.112 262.626 769.384 266.111 770.712 269.761C772.039 273.301 773.311 276.565 774.528 279.552C775.406 281.892 776.283 284.16 777.161 286.355C777.512 287.233 769.503 290.266 767.559 290.394L753.288 291.333L736.86 242.381V264.285C736.86 270.217 736.189 276.306 736.445 282.207C736.445 285.083 737.081 287.848 737.192 290.503H713.629C713.629 284.972 713.684 279.054 713.795 272.748C713.905 267.327 713.961 261.132 713.961 254.163C714.071 247.083 714.127 239.671 714.127 231.927C714.127 224.958 714.071 218.099 713.961 211.351C713.961 204.492 713.905 198.297 713.795 192.766C713.745 189.875 713.706 187.04 713.679 184.261C713.663 182.643 719.852 174.347 721.428 174.015ZM738.852 228.277C742.668 226.202 745.883 226.161 748.144 221.639C748.918 220.09 749.582 218.265 750.135 216.163C750.688 214.061 750.965 211.738 750.965 209.194C750.965 205.433 750.578 202.446 749.803 200.233C749.029 197.91 748.033 196.14 746.817 194.923C745.71 193.706 744.438 192.932 743 192.6C742.028 192.301 741.106 192.103 740.235 192.006C739.672 191.943 736.86 194.092 736.86 194.542V226.742L738.852 228.277Z" fill="white"/>
<path d="M700.395 176.235L696.744 188.681L691.95 193.659C686.586 193.659 678.881 193.659 673.513 193.659V224.357C676.61 224.357 679.597 224.357 682.474 224.357C685.35 224.357 687.95 224.302 690.273 224.191C692.928 224.191 695.472 224.136 697.906 224.026L695.403 237.116L692.596 240.951C686.233 240.951 679.873 240.951 673.513 240.951V274.969C677.053 274.969 680.427 274.969 683.635 274.969C686.954 274.969 689.941 274.913 692.596 274.803C695.583 274.803 698.514 274.747 701.391 274.637L698.819 284.095L692.098 292.392H651.111C651.111 286.639 651.167 280.555 651.277 274.139C651.388 268.608 651.443 262.413 651.443 255.554C651.554 248.695 651.609 241.615 651.609 234.314C651.609 227.012 651.554 219.877 651.443 212.908C651.443 205.938 651.388 199.743 651.277 194.323C651.167 188.017 651.111 181.988 651.111 176.235H700.395Z" fill="white"/>
<path d="M573.825 176.235L566.847 188.681C566.847 189.528 561.166 193.825 559.721 193.825C556.73 193.825 553.749 193.659 550.76 193.659C550.649 197.752 550.539 202.232 550.428 207.1C550.318 211.304 550.262 216.171 550.262 221.702C550.262 227.123 550.262 232.986 550.262 239.292C550.262 245.597 550.262 251.903 550.262 258.209C550.262 264.404 550.318 270.046 550.428 275.134C550.539 281.108 550.649 286.861 550.76 292.392H527.363C527.363 286.861 527.418 281.108 527.529 275.134C527.639 270.046 527.695 264.404 527.695 258.209C527.805 251.903 527.861 245.597 527.861 239.292C527.861 232.986 527.805 227.123 527.695 221.702C527.695 216.171 527.639 211.304 527.529 207.1C527.447 203.516 527.396 200.142 527.374 196.978C527.363 195.288 521.545 193.825 519.398 193.825C516.853 193.825 514.53 193.88 512.428 193.991C509.995 194.101 507.671 194.157 505.459 194.157L511.835 180.384L517.904 176.235H573.825Z" fill="white"/>
<path d="M493.867 328L486.889 340.445C486.889 341.293 481.208 345.589 479.763 345.589C476.772 345.589 473.791 345.423 470.802 345.423C470.691 349.517 470.581 353.997 470.47 358.864C470.36 363.068 470.304 367.936 470.304 373.467C470.304 378.888 470.304 384.751 470.304 391.056C470.304 397.362 470.304 403.668 470.304 409.973C470.304 416.168 470.36 421.81 470.47 426.899C470.581 432.873 470.691 438.625 470.802 444.157H447.405C447.405 438.625 447.46 432.873 447.571 426.899C447.681 421.81 447.737 416.168 447.737 409.973C447.847 403.668 447.903 397.362 447.903 391.056C447.903 384.751 447.847 378.888 447.737 373.467C447.737 367.936 447.681 363.068 447.571 358.864C447.489 355.28 447.438 351.906 447.416 348.742C447.405 347.053 441.587 345.589 439.44 345.589C436.895 345.589 434.572 345.645 432.47 345.755C430.037 345.866 427.713 345.921 425.501 345.921L431.877 332.148L437.946 328H493.867Z" fill="white"/>
<path d="M643.368 176.235L636.39 188.681C636.39 189.528 630.709 193.825 629.264 193.825C626.273 193.825 623.292 193.659 620.303 193.659C620.192 197.752 620.082 202.232 619.971 207.1C619.861 211.304 619.805 216.171 619.805 221.702C619.805 227.123 619.805 232.986 619.805 239.292C619.805 245.597 619.805 251.903 619.805 258.209C619.805 264.404 619.861 270.046 619.971 275.134C620.082 281.108 620.192 286.861 620.303 292.392H596.906C596.906 286.861 596.961 281.108 597.072 275.134C597.182 270.046 597.238 264.404 597.238 258.209C597.348 251.903 597.404 245.597 597.404 239.292C597.404 232.986 597.348 227.123 597.238 221.702C597.238 216.171 597.182 211.304 597.072 207.1C596.99 203.516 596.939 200.142 596.917 196.978C596.906 195.288 591.088 193.825 588.941 193.825C586.396 193.825 584.073 193.88 581.971 193.991C579.538 194.101 577.214 194.157 575.002 194.157L581.378 180.384L587.447 176.235H643.368Z" fill="white"/>
<path d="M399.425 210.087C399.536 209.202 399.591 208.593 399.591 208.261C399.591 207.93 399.591 207.598 399.591 207.266C399.591 204.5 399.149 202.288 398.263 200.628C397.489 198.969 396.493 197.752 395.277 196.978C394.17 196.093 392.953 195.539 391.626 195.318C390.491 195.318 385.464 198.52 385.248 199.881C384.886 202.161 384.578 204.567 384.325 207.1C383.882 210.861 383.495 215.175 383.163 220.043C382.831 224.911 382.665 230.055 382.665 235.475C382.665 237.577 382.665 239.679 382.665 241.781C382.665 243.772 382.776 245.819 382.997 247.921C383.44 254.448 384.546 259.481 386.316 263.021C388.197 266.561 390.298 269.161 392.622 270.82C394.945 272.369 397.323 273.309 399.757 273.641C410.139 274.585 417.04 271.127 424.482 263.685C424.592 263.574 424.98 263.74 425.643 264.183C426.418 264.625 426.75 264.957 426.639 265.178C414.194 291.147 393.451 299.444 379.015 291.894C374.811 289.682 371.437 286.584 368.892 282.602C365.242 276.96 362.863 270.875 361.757 264.348C360.761 257.711 360.264 250.244 360.264 241.947C360.264 237.411 360.485 232.71 360.927 227.842C361.37 222.864 361.868 218.273 362.421 214.069C363.085 209.755 363.693 206.16 364.246 203.283C364.586 201.515 369.28 193.714 370.718 192.497C372.156 191.28 373.76 189.953 375.53 188.515C377.3 187.077 379.125 185.694 381.006 184.366C384.767 181.711 388.086 179.72 390.962 178.393C393.949 176.954 396.272 176.235 397.932 176.235C401.361 176.235 404.68 176.623 407.888 177.397C411.207 178.171 414.304 180.218 417.18 183.537C418.287 184.864 419.172 186.247 419.835 187.685C420.499 189.123 420.997 190.506 421.329 191.834C421.661 193.161 421.827 194.378 421.827 195.484C421.937 196.48 421.993 197.254 421.993 197.807V198.803L399.425 210.087Z" fill="white"/>
<path d="M561.576 24.8297C561.576 24.8297 562.295 24.7744 563.733 24.6638C565.282 24.5531 567.273 24.4978 569.707 24.4978C572.251 24.3872 575.072 24.2766 578.17 24.1659C581.378 24.0553 584.586 24 587.794 24C591.224 24 594.432 24.1659 597.419 24.4978C600.516 24.8297 603.392 25.5488 606.047 26.655C608.702 27.6506 611.136 29.0888 613.349 30.9694C615.561 32.85 617.497 35.3391 619.157 38.4366C620.484 40.7598 621.535 43.4701 622.309 46.5676C623.194 49.6651 623.858 52.9839 624.301 56.5239C624.854 59.9533 625.241 63.5486 625.462 67.3098C625.683 71.0711 625.794 74.8324 625.794 78.5936C625.794 82.023 625.628 85.8396 625.296 90.0434C625.075 94.1365 624.743 98.119 624.301 101.991C623.969 105.752 623.582 109.126 623.139 112.113C622.697 115.1 622.309 117.202 621.977 118.419C621.867 118.64 621.203 119.414 619.986 120.742C618.88 122.069 617.442 123.673 615.672 125.554C613.902 127.324 611.966 129.205 609.864 131.196C607.762 133.187 605.716 134.957 603.724 136.506C602.729 137.28 601.788 137.944 600.903 138.497C600.018 139.05 599.078 139.548 598.082 139.991C597.197 140.323 596.091 140.599 594.764 140.82C593.547 140.931 592.053 140.986 590.283 140.986H561.41C561.41 134.681 561.465 128.209 561.576 121.572C561.687 115.93 561.742 109.735 561.742 102.987C561.853 96.1278 561.908 89.4349 561.908 82.908C561.908 76.4918 561.853 69.8542 561.742 62.9955C561.742 56.1367 561.742 49.8864 561.742 44.2445C561.631 37.6069 561.576 31.1353 561.576 24.8297ZM584.169 47.646C584.152 49.1454 584.144 50.7219 584.144 52.3754C584.033 55.9154 583.978 60.2851 583.978 65.4845C583.978 70.6839 583.978 76.4918 583.978 82.908C583.978 89.4349 583.978 95.1321 583.978 99.9996C583.978 104.867 584.033 108.96 584.144 112.279C584.144 115.222 584.176 117.876 584.239 120.244C584.248 120.564 586.286 122.66 586.799 122.733C587.311 122.806 588.458 122.954 589.454 123.065C590.56 123.065 591.721 123.065 592.938 123.065C595.593 123.065 597.695 122.899 599.244 122.567C600.129 122.457 600.903 122.291 601.567 122.069C602.12 117.866 602.673 112.334 603.226 105.476C603.89 98.5062 604.222 90.4306 604.222 81.2486C604.222 75.2749 604.001 69.8542 603.558 64.9867C603.116 60.0086 602.176 55.8048 600.737 52.3754C599.299 48.8354 597.253 46.1251 594.598 44.2445C593.408 43.3136 592.025 42.6003 590.449 42.1046C589.106 41.6821 584.186 46.1465 584.169 47.646Z" fill="white"/>
<path d="M588.759 328.83C588.759 328.83 589.478 328.774 590.916 328.664C592.465 328.553 594.456 328.498 596.89 328.498C599.434 328.387 602.255 328.277 605.352 328.166C608.561 328.055 611.769 328 614.977 328C618.406 328 621.614 328.166 624.601 328.498C627.699 328.83 630.575 329.549 633.23 330.655C635.885 331.651 638.319 333.089 640.531 334.969C642.744 336.85 644.68 339.339 646.339 342.437C647.667 344.76 648.718 347.47 649.492 350.568C650.377 353.665 651.041 356.984 651.483 360.524C652.036 363.953 652.424 367.549 652.645 371.31C652.866 375.071 652.977 378.832 652.977 382.594C652.977 386.023 652.811 389.84 652.479 394.043C652.258 398.137 651.926 402.119 651.483 405.991C651.151 409.752 650.764 413.126 650.322 416.113C649.879 419.1 649.492 421.202 649.16 422.419C649.049 422.64 648.386 423.414 647.169 424.742C646.063 426.069 644.624 427.673 642.854 429.554C641.084 431.324 639.148 433.205 637.047 435.196C634.945 437.187 632.898 438.957 630.907 440.506C629.911 441.28 628.971 441.944 628.086 442.497C627.201 443.05 626.261 443.548 625.265 443.991C624.38 444.323 623.274 444.599 621.946 444.82C620.729 444.931 619.236 444.986 617.466 444.986H588.593C588.593 438.681 588.648 432.209 588.759 425.572C588.869 419.93 588.925 413.735 588.925 406.987C589.035 400.128 589.09 393.435 589.09 386.908C589.09 380.492 589.035 373.854 588.925 366.995C588.925 360.137 588.925 353.886 588.925 348.244C588.814 341.607 588.759 335.135 588.759 328.83ZM611.352 351.646C611.335 353.145 611.326 354.722 611.326 356.375C611.216 359.915 611.16 364.285 611.16 369.485C611.16 374.684 611.16 380.492 611.16 386.908C611.16 393.435 611.16 399.132 611.16 404C611.16 408.867 611.216 412.96 611.326 416.279C611.326 419.222 611.358 421.876 611.422 424.244C611.431 424.564 613.469 426.66 613.981 426.733C614.494 426.806 615.641 426.954 616.636 427.065C617.742 427.065 618.904 427.065 620.121 427.065C622.776 427.065 624.878 426.899 626.427 426.567C627.312 426.457 628.086 426.291 628.75 426.069C629.303 421.866 629.856 416.334 630.409 409.476C631.073 402.506 631.405 394.431 631.405 385.249C631.405 379.275 631.183 373.854 630.741 368.987C630.298 364.009 629.358 359.805 627.92 356.375C626.482 352.835 624.435 350.125 621.78 348.244C620.591 347.314 619.208 346.6 617.632 346.105C616.288 345.682 611.369 350.147 611.352 351.646Z" fill="white"/>
<path d="M525.931 24C527.259 31.965 528.642 40.1513 530.08 48.5588C531.297 55.8601 532.679 63.8805 534.228 72.6199C535.777 81.2486 537.326 89.8221 538.874 98.3403C539.87 103.65 540.81 108.794 541.695 113.773C542.691 118.751 543.631 123.176 544.516 127.048C545.401 131.583 546.286 135.953 547.171 140.157L523.442 141.816C522.778 137.944 522.17 134.017 521.617 130.034C521.064 126.605 520.455 122.954 519.792 119.083C519.238 115.1 518.685 111.449 518.132 108.131H506.908C502.852 108.131 499.377 111.061 498.844 115.082C498.685 116.281 498.532 117.503 498.386 118.751C497.943 122.512 497.501 125.997 497.058 129.205C496.616 132.855 496.173 136.506 495.731 140.157L477.146 141.816C477.92 137.834 478.805 133.519 479.801 128.873C480.686 124.89 481.571 120.299 482.456 115.1C483.451 109.901 484.502 104.314 485.608 98.3403C487.046 90.0434 488.485 81.5805 489.923 72.9517C491.361 64.323 492.688 56.4132 493.905 49.2226C495.233 40.8151 496.56 32.6841 497.888 24.8297L525.931 24ZM508.674 51.7117L502.368 91.5368H515.809L508.674 51.7117Z" fill="white"/>
<path d="M482.442 176.235C483.77 184.2 485.152 192.387 486.591 200.794C487.807 208.095 489.19 216.116 490.739 224.855C492.288 233.484 493.836 242.057 495.385 250.576C496.381 255.886 497.321 261.03 498.206 266.008C499.202 270.986 500.142 275.411 501.027 279.283C501.912 283.819 502.797 288.188 503.682 292.392L479.953 294.051C479.289 290.18 478.681 286.252 478.128 282.27C477.575 278.84 476.966 275.19 476.302 271.318C475.749 267.335 475.196 263.685 474.643 260.366H463.418C459.362 260.366 455.888 263.297 455.355 267.317C455.196 268.516 455.043 269.739 454.896 270.986C454.454 274.747 454.011 278.232 453.569 281.44C453.126 285.091 452.684 288.741 452.241 292.392L433.656 294.051C434.431 290.069 435.316 285.754 436.311 281.108C437.196 277.126 438.081 272.535 438.966 267.335C439.962 262.136 441.013 256.549 442.119 250.576C443.557 242.279 444.995 233.816 446.433 225.187C447.872 216.558 449.199 208.649 450.416 201.458C451.744 193.05 453.071 184.919 454.399 177.065L482.442 176.235ZM465.184 203.947L458.879 243.772H472.32L465.184 203.947Z" fill="white"/>
<path d="M393.617 24C394.613 29.0888 395.719 34.2882 396.936 39.5982C397.932 44.1338 398.983 49.0013 400.089 54.2007C401.195 59.4001 402.301 64.323 403.408 68.9692C404.624 74.058 405.675 78.6489 406.56 82.7421C407.445 86.7246 408.275 90.154 409.049 93.0303C409.824 96.4596 410.598 99.4465 411.373 101.991C412.036 99.4465 412.811 96.4596 413.696 93.0303C414.47 90.154 415.3 86.7246 416.185 82.7421C417.18 78.6489 418.287 74.058 419.504 68.9692C420.61 64.323 421.716 59.4554 422.822 54.3667C424.039 49.1673 425.145 44.3551 426.141 39.9301C427.358 34.7307 428.464 29.6972 429.46 24.8297L458.167 24C458.278 29.8631 458.444 35.9475 458.665 42.2532C458.886 47.6738 459.052 53.8136 459.163 60.6723C459.384 67.4205 459.661 74.2792 459.992 81.2486C460.324 88.7712 460.656 96.0725 460.988 103.152C461.431 110.122 461.818 116.372 462.15 121.903C462.465 126.479 462.753 130.886 463.012 135.124C463.012 135.729 460.817 140.404 459.827 140.404L439.914 141.816C439.803 136.727 439.637 131.528 439.416 126.218C439.195 121.572 439.029 116.483 438.918 110.952C438.808 105.31 438.642 99.8337 438.421 94.5237C438.199 89.7668 437.978 85.3418 437.757 81.2486C437.646 77.1555 437.48 73.6155 437.259 70.6286C437.038 67.0886 436.816 63.9358 436.595 61.1701C435.71 64.2676 434.881 67.4205 434.106 70.6286C433.442 73.3942 432.668 76.4364 431.783 79.7552C431.009 83.074 430.29 86.2821 429.626 89.3796C428.52 94.0259 427.413 98.7275 426.307 103.484C425.311 108.131 424.371 112.445 423.486 116.428C422.38 121.074 421.329 125.609 420.333 130.034L421.495 140.157L397.766 140.986C396.881 136.561 395.94 131.97 394.945 127.213C394.06 123.12 393.064 118.529 391.958 113.441C390.852 108.352 389.745 103.263 388.639 98.1743C387.754 94.0812 386.869 90.2093 385.984 86.5587C385.099 82.7974 384.325 79.4786 383.661 76.6024C382.887 73.2836 382.168 70.1308 381.504 67.1439C381.393 70.0202 381.227 73.1177 381.006 76.4364C380.785 79.3127 380.619 82.6315 380.508 86.3927C380.397 90.154 380.287 94.0812 380.176 98.1743C379.955 103.152 379.789 108.131 379.678 113.109C379.568 118.087 379.457 122.567 379.347 126.55C379.236 131.196 379.181 135.732 379.181 140.157L360.264 141.816C360.706 135.842 361.204 129.537 361.757 122.899C362.2 117.257 362.697 110.841 363.251 103.65C363.804 96.349 364.357 88.8818 364.91 81.2486C365.352 74.2792 365.795 67.4205 366.237 60.6723C366.68 53.9242 367.012 47.8951 367.233 42.5851C367.565 36.39 367.842 30.4716 368.063 24.8297L393.617 24Z" fill="white"/>
</svg>
